<svg xmlns="http://www.w3.org/2000/svg" width="320" height="191" viewBox="0 0 320 191">
  <defs>
    <style>
      .cls-1 {
        fill: #676262;
      }

      .cls-1, .cls-2, .cls-3 {
        fill-rule: evenodd;
      }

      .cls-2 {
        fill: #ec1212;
      }

      .cls-3 {
        fill: #efa2a2;
      }
    </style>
  </defs>
  <path id="Line_1" data-name="Line 1" class="cls-1" d="M1,191C-4.653,103.513,66.127,29.419,151,30c83.742,0.573,153.02,73.653,148,160,1.951-83.632-64.716-152.864-145-155C70.442,32.777-1.526,103.93,1,191Z"/>
  <path class="cls-2" d="M302.434,102.959l10.635,28.052a9.5,9.5,0,0,1-17.766,6.735l-10.635-28.052A9.5,9.5,0,0,1,302.434,102.959Z"/>
  <path class="cls-3" d="M307.778,96.2a3,3,0,0,1,1.235,4.059l-0.941,1.765a3,3,0,1,1-5.294-2.823l0.941-1.765A3,3,0,0,1,307.778,96.2Z"/>
  <path id="Rectangle_2_copy_2" data-name="Rectangle 2 copy 2" class="cls-3" d="M311.132,104.792a3,3,0,0,1,1.235,4.059l-0.941,1.765a3,3,0,0,1-5.294-2.823l0.941-1.765A3,3,0,0,1,311.132,104.792Z"/>
  <path id="Rectangle_2_copy_3" data-name="Rectangle 2 copy 3" class="cls-3" d="M314.427,115.615a3,3,0,0,1,1.236,4.059l-0.941,1.765a3,3,0,0,1-5.295-2.823l0.941-1.765A3,3,0,0,1,314.427,115.615Z"/>
  <path id="Rectangle_2_copy_4" data-name="Rectangle 2 copy 4" class="cls-3" d="M317.839,121.968a3,3,0,0,1,1.236,4.059l-0.941,1.764a3,3,0,1,1-5.294-2.823l0.941-1.764A3,3,0,0,1,317.839,121.968Z"/>
  <path id="Rectangle_1_copy" data-name="Rectangle 1 copy" class="cls-2" d="M223.325,25.707l26.687,14.452a9.416,9.416,0,0,1,3.782,12.91,9.75,9.75,0,0,1-13.121,3.757L213.987,42.373a9.416,9.416,0,0,1-3.782-12.91A9.749,9.749,0,0,1,223.325,25.707Z"/>
  <path id="Rectangle_2_copy" data-name="Rectangle 2 copy" class="cls-3" d="M223,17.1l0.053-.012a3.023,3.023,0,0,1,3.6,2.285l0.435,1.971a2.994,2.994,0,0,1-2.308,3.563l-0.053.012a3.023,3.023,0,0,1-3.6-2.285l-0.435-1.971A2.993,2.993,0,0,1,223,17.1Z"/>
  <path id="Rectangle_2_copy_5" data-name="Rectangle 2 copy 5" class="cls-3" d="M231.244,21.46l0.053-.011a3.023,3.023,0,0,1,3.6,2.285L235.33,25.7a2.993,2.993,0,0,1-2.308,3.563l-0.053.011a3.022,3.022,0,0,1-3.6-2.285l-0.435-1.971A2.993,2.993,0,0,1,231.244,21.46Z"/>
  <path id="Rectangle_2_copy_5-2" data-name="Rectangle 2 copy 5" class="cls-3" d="M240.914,27.56l0.054-.011a3.023,3.023,0,0,1,3.6,2.285L245,31.805a2.993,2.993,0,0,1-2.308,3.563l-0.053.011a3.022,3.022,0,0,1-3.6-2.285l-0.435-1.971A2.993,2.993,0,0,1,240.914,27.56Z"/>
  <path id="Rectangle_2_copy_5-3" data-name="Rectangle 2 copy 5" class="cls-3" d="M247.736,30.181l0.053-.012a3.023,3.023,0,0,1,3.6,2.285l0.435,1.971a2.993,2.993,0,0,1-2.308,3.563L249.461,38a3.023,3.023,0,0,1-3.6-2.285l-0.435-1.971A2.993,2.993,0,0,1,247.736,30.181Z"/>
  <path id="Rectangle_1_copy_2" data-name="Rectangle 1 copy 2" class="cls-2" d="M269.194,57.966l20.02,22.343a9.5,9.5,0,0,1-14.151,12.679l-20.02-22.343A9.5,9.5,0,0,1,269.194,57.966Z"/>
  <path id="Rectangle_2_copy_6" data-name="Rectangle 2 copy 6" class="cls-3" d="M271.747,49.741a3,3,0,0,1,2.614,3.342l-0.242,1.985a3,3,0,0,1-5.956-.728l0.243-1.985A3,3,0,0,1,271.747,49.741Z"/>
  <path id="Rectangle_2_copy_6-2" data-name="Rectangle 2 copy 6" class="cls-3" d="M277.968,56.546a3,3,0,0,1,2.614,3.342l-0.243,1.985a3,3,0,1,1-5.955-.728l0.242-1.985A3,3,0,0,1,277.968,56.546Z"/>
  <path id="Rectangle_2_copy_6-3" data-name="Rectangle 2 copy 6" class="cls-3" d="M284.938,65.457a3,3,0,0,1,2.614,3.342l-0.242,1.985a3,3,0,0,1-5.956-.728l0.243-1.985A3,3,0,0,1,284.938,65.457Z"/>
  <path id="Rectangle_2_copy_6-4" data-name="Rectangle 2 copy 6" class="cls-3" d="M290.409,70.155a3,3,0,0,1,2.614,3.342l-0.243,1.985a3,3,0,1,1-5.955-.728l0.242-1.985A3,3,0,0,1,290.409,70.155Z"/>
  <path id="Rectangle_1_copy_3" data-name="Rectangle 1 copy 3" class="cls-2" d="M168.758,8.486l29.42,7.048a9.4,9.4,0,0,1,7.064,11.345,9.567,9.567,0,0,1-11.569,6.881l-29.419-7.048a9.4,9.4,0,0,1-7.065-11.344A9.568,9.568,0,0,1,168.758,8.486Z"/>
  <path id="Rectangle_2_copy_7" data-name="Rectangle 2 copy 7" class="cls-3" d="M166.173,0.358a3.066,3.066,0,0,1,4.085,1.266l0.934,1.753a2.927,2.927,0,0,1-1.281,3.994A3.066,3.066,0,0,1,165.826,6.1l-0.934-1.753A2.927,2.927,0,0,1,166.173.358Z"/>
  <path id="Rectangle_2_copy_7-2" data-name="Rectangle 2 copy 7" class="cls-3" d="M175.236,2.435A3.065,3.065,0,0,1,179.32,3.7l0.934,1.753a2.926,2.926,0,0,1-1.281,3.994,3.065,3.065,0,0,1-4.084-1.266l-0.934-1.753A2.926,2.926,0,0,1,175.236,2.435Z"/>
  <path id="Rectangle_2_copy_7-3" data-name="Rectangle 2 copy 7" class="cls-3" d="M186.127,5.812a3.065,3.065,0,0,1,4.084,1.266l0.935,1.753a2.926,2.926,0,0,1-1.282,3.994,3.065,3.065,0,0,1-4.084-1.266l-0.934-1.753A2.926,2.926,0,0,1,186.127,5.812Z"/>
  <path id="Rectangle_2_copy_7-4" data-name="Rectangle 2 copy 7" class="cls-3" d="M193.361,6.591a3.065,3.065,0,0,1,4.084,1.266L198.38,9.61A2.926,2.926,0,0,1,197.1,13.6a3.065,3.065,0,0,1-4.084-1.266l-0.934-1.753A2.926,2.926,0,0,1,193.361,6.591Z"/>
</svg>
