<?xml version="1.0" standalone="no"?>
<!DOCTYPE svg PUBLIC "-//W3C//DTD SVG 20010904//EN"
 "http://www.w3.org/TR/2001/REC-SVG-20010904/DTD/svg10.dtd">
<svg version="1.0" xmlns="http://www.w3.org/2000/svg"
 width="1280.000000pt" height="1280.000000pt" viewBox="0 0 1280.000000 1280.000000"
 preserveAspectRatio="xMidYMid meet">
<metadata>
Created by potrace 1.11, written by Peter Selinger 2001-2013
</metadata>
<g transform="translate(0.000000,1280.000000) scale(0.100000,-0.100000)"
fill="#000000" stroke="none">
<path d="M6643 10200 c-35 -21 -53 -48 -60 -91 -5 -37 48 -142 88 -171 78 -58
189 -4 189 92 0 29 -41 120 -65 145 -46 48 -100 57 -152 25z"/>
<path d="M7012 10123 c-68 -33 -82 -96 -42 -180 35 -74 79 -113 128 -113 77 0
141 72 123 137 -24 84 -84 162 -126 164 -11 0 -27 2 -36 4 -9 1 -30 -4 -47
-12z"/>
<path d="M7435 9982 c-34 -28 -55 -65 -55 -97 0 -33 40 -116 74 -154 20 -23
20 -23 1 -18 -11 4 -42 11 -70 17 -27 6 -97 22 -155 36 -58 14 -112 27 -120
29 -8 2 -62 15 -120 29 -58 15 -115 28 -128 31 -12 2 -30 6 -40 9 -122 37
-245 31 -339 -16 -51 -25 -133 -96 -133 -114 0 -8 -3 -14 -8 -14 -15 0 -55
-105 -61 -162 -9 -68 16 -182 49 -228 11 -15 20 -31 20 -34 0 -20 140 -126
175 -132 13 -3 130 -32 175 -44 45 -12 328 -80 359 -86 13 -3 51 -12 85 -20
34 -8 72 -17 86 -20 14 -3 43 -10 65 -16 22 -6 45 -11 50 -13 6 -1 21 -5 35
-8 54 -14 156 -37 175 -41 11 -2 40 -9 65 -16 25 -7 50 -13 55 -14 6 -2 37 -8
70 -15 183 -40 356 42 438 208 29 59 32 74 32 156 0 82 -4 98 -32 156 -52 106
-142 178 -258 207 -111 29 -162 42 -185 46 -14 3 -54 12 -90 21 -36 9 -70 18
-77 19 -7 1 -15 5 -18 9 -3 4 -2 5 1 2 9 -6 56 20 78 44 30 33 26 97 -8 165
-16 32 -40 65 -53 74 -35 22 -113 25 -138 4z"/>
<path d="M7786 9972 c-4 -3 -14 -7 -23 -8 -51 -8 -93 -59 -93 -113 0 -29 48
-130 73 -155 47 -47 133 -41 181 13 20 22 31 107 15 117 -5 3 -7 10 -4 15 4 5
2 9 -3 9 -6 0 -15 12 -21 28 -5 15 -19 37 -29 49 -21 24 -87 55 -96 45z"/>
<path d="M8892 9524 c-47 -24 -66 -57 -64 -113 3 -139 96 -226 190 -177 60 31
77 82 57 176 -22 106 -101 156 -183 114z"/>
<path d="M9227 9353 c-26 -11 -42 -27 -56 -56 -11 -23 -19 -49 -17 -57 25
-135 41 -164 102 -185 47 -16 89 -5 127 34 35 35 39 87 14 173 -26 88 -91 122
-170 91z"/>
<path d="M8768 9244 c-4 -3 -26 -7 -50 -9 -58 -4 -95 -14 -148 -41 -185 -93
-259 -310 -170 -501 19 -39 38 -69 42 -67 4 3 8 -1 8 -8 1 -20 85 -82 175
-129 44 -23 100 -53 125 -66 25 -14 79 -44 120 -66 41 -22 118 -63 170 -92
101 -56 170 -93 315 -171 50 -26 113 -61 140 -76 28 -16 88 -47 135 -70 74
-36 95 -42 162 -44 201 -8 356 113 403 314 7 28 10 52 6 52 -3 0 -7 19 -7 43
-2 51 -8 84 -17 93 -4 4 -7 13 -7 20 0 13 -28 59 -65 105 -28 35 -78 70 -165
116 -41 22 -97 53 -125 68 -27 16 -75 41 -105 56 -30 16 -53 29 -50 29 3 1 19
3 37 4 37 4 88 42 97 71 16 57 -6 166 -43 206 -51 58 -155 47 -193 -20 -22
-38 -14 -131 16 -192 17 -33 13 -35 -29 -9 -16 10 -59 34 -95 53 -75 39 -185
99 -250 135 -25 14 -74 41 -110 60 -36 19 -92 49 -125 67 -63 33 -140 62 -165
60 -8 0 -18 3 -21 7 -3 5 -8 6 -11 2z"/>
<path d="M5719 9015 c-2 -2 -53 -6 -114 -9 -60 -3 -121 -8 -135 -10 -14 -2
-59 -7 -100 -11 -41 -4 -84 -9 -95 -11 -11 -2 -42 -6 -70 -8 -27 -3 -75 -10
-105 -16 -30 -6 -71 -13 -90 -16 -60 -9 -82 -13 -180 -34 -52 -12 -106 -23
-120 -26 -230 -46 -776 -224 -1005 -328 -16 -8 -52 -24 -80 -36 -142 -62 -410
-200 -547 -281 -36 -21 -71 -39 -77 -39 -6 0 -11 -4 -11 -8 0 -5 -12 -15 -27
-23 -39 -19 -203 -124 -233 -149 -14 -11 -30 -20 -37 -20 -6 0 -13 -3 -15 -8
-3 -7 -120 -93 -169 -124 -15 -9 -38 -26 -51 -37 -13 -10 -70 -57 -128 -102
-58 -46 -107 -86 -110 -89 -3 -3 -39 -34 -80 -70 -118 -101 -143 -125 -314
-295 -167 -165 -241 -246 -371 -400 -22 -26 -45 -53 -50 -59 -6 -6 -42 -51
-80 -101 -38 -49 -74 -95 -80 -102 -5 -6 -21 -28 -35 -48 -14 -19 -35 -48 -47
-63 -13 -15 -23 -33 -23 -39 0 -7 -3 -13 -8 -13 -4 0 -18 -18 -32 -40 -14 -22
-28 -40 -32 -40 -5 0 -8 -4 -8 -10 0 -5 -22 -42 -48 -82 -136 -204 -412 -703
-412 -744 0 -6 -7 -17 -15 -24 -8 -7 -15 -18 -15 -26 0 -7 -13 -41 -29 -76
-17 -35 -42 -92 -56 -128 -14 -36 -30 -74 -35 -85 -26 -56 -152 -420 -175
-505 -16 -57 -105 -401 -109 -421 -3 -13 -7 -34 -10 -45 -2 -12 -7 -37 -10
-55 -3 -19 -8 -45 -11 -59 -4 -14 -8 -38 -11 -55 -3 -16 -9 -55 -14 -85 -5
-30 -12 -73 -15 -95 -10 -66 -15 -99 -20 -125 -9 -53 -33 -333 -40 -465 -6
-109 -6 -457 -1 -463 3 -3 6 21 7 54 1 110 8 279 14 349 3 39 8 95 11 125 2
30 6 69 8 85 7 54 17 129 23 170 3 22 6 51 8 65 1 14 5 39 9 55 3 17 8 44 10
60 6 42 15 92 27 145 6 25 12 59 15 75 4 34 77 334 98 403 30 102 119 378 129
402 5 14 11 30 12 35 5 21 88 225 142 350 62 144 212 441 292 579 28 49 51 92
51 96 0 4 9 15 20 25 11 10 20 23 20 28 0 10 247 387 260 397 3 3 17 21 30 40
13 19 27 37 30 40 3 3 17 21 30 40 13 19 27 37 30 40 3 3 21 25 40 50 40 51
61 77 75 94 6 6 25 29 44 51 203 242 438 482 661 675 41 36 77 67 80 70 24 25
192 157 310 243 80 59 150 110 155 114 6 5 42 28 80 53 39 24 72 47 75 50 11
13 264 164 345 206 28 15 52 30 53 35 2 5 10 9 17 9 8 0 38 14 67 31 29 18 89
49 133 69 44 21 124 58 178 84 55 25 103 46 108 46 4 0 24 9 44 20 19 11 37
20 40 20 3 0 21 7 41 15 20 8 41 15 46 15 6 0 22 7 36 14 15 8 92 37 172 64
223 76 243 82 272 87 15 2 37 9 48 15 11 6 20 8 20 4 0 -3 7 -1 15 6 8 6 19 9
24 6 5 -4 12 -2 15 3 3 4 25 12 48 16 44 8 54 11 63 15 6 3 9 4 55 13 19 4 44
9 55 12 57 14 160 35 188 40 18 3 66 12 107 20 41 8 95 17 120 20 25 3 56 8
70 10 14 3 45 7 70 10 25 3 61 7 80 10 107 14 247 24 403 30 70 2 132 7 137
10 5 3 11 1 15 -5 4 -6 13 -7 23 -2 9 4 42 7 72 6 30 -1 129 -5 220 -9 230 -9
370 -20 505 -40 38 -6 99 -14 145 -20 19 -3 46 -7 60 -10 14 -3 45 -8 69 -11
25 -3 48 -7 52 -10 4 -2 27 -7 51 -10 24 -3 50 -8 58 -11 8 -3 31 -7 50 -10
19 -3 40 -9 46 -14 6 -5 13 -7 16 -4 2 3 20 0 39 -6 19 -5 52 -14 74 -18 22
-5 76 -19 120 -31 44 -12 85 -23 90 -25 6 -1 17 -5 25 -8 8 -3 62 -20 120 -37
58 -18 116 -37 130 -43 14 -5 32 -11 40 -13 8 -2 23 -7 35 -13 11 -5 52 -21
90 -35 68 -24 180 -68 220 -86 11 -5 71 -32 134 -60 131 -59 455 -224 471
-240 3 -3 19 -12 35 -20 17 -8 32 -17 35 -20 8 -8 43 -29 70 -43 65 -32 334
-212 474 -318 55 -41 111 -83 125 -93 14 -11 40 -31 56 -45 17 -15 51 -42 75
-61 25 -19 57 -47 73 -62 15 -15 40 -36 55 -48 140 -110 430 -404 649 -659 13
-14 28 -33 35 -41 18 -19 58 -70 88 -110 14 -18 30 -39 37 -46 22 -22 183
-245 251 -348 36 -56 70 -103 74 -106 4 -3 12 -17 17 -30 12 -27 33 -62 42
-70 6 -5 97 -160 149 -255 40 -71 220 -431 220 -439 0 -3 13 -34 28 -68 16
-35 39 -90 52 -123 13 -33 27 -65 31 -71 5 -6 10 -19 12 -30 2 -10 9 -30 14
-44 16 -40 65 -174 67 -185 1 -5 4 -14 7 -20 7 -12 65 -198 75 -240 4 -16 9
-34 13 -40 3 -5 6 -15 7 -21 1 -6 9 -36 17 -65 9 -30 18 -65 20 -79 3 -14 13
-54 22 -90 9 -36 18 -72 20 -80 37 -182 56 -282 59 -310 3 -19 5 -35 6 -35 2
0 8 -35 15 -85 3 -25 8 -58 10 -75 3 -16 8 -52 11 -80 3 -27 7 -61 10 -75 2
-14 6 -54 8 -90 3 -36 8 -95 11 -132 3 -36 7 -112 9 -167 2 -56 7 -105 11
-109 4 -4 4 83 1 193 -7 246 -12 328 -32 500 -2 22 -7 63 -10 90 -3 28 -8 64
-10 80 -3 17 -7 46 -10 65 -7 59 -12 87 -19 119 -3 16 -8 42 -10 58 -3 24 -58
286 -70 333 -43 176 -66 261 -104 380 -32 103 -58 182 -74 225 -9 22 -30 78
-47 125 -100 270 -255 600 -399 850 -63 108 -175 294 -181 300 -3 3 -31 43
-62 90 -72 109 -130 192 -146 210 -7 8 -32 42 -57 75 -54 72 -50 68 -100 130
-21 28 -42 52 -45 55 -3 3 -21 25 -41 50 -20 25 -47 57 -60 71 -13 15 -51 57
-84 95 -77 89 -369 380 -463 463 -119 105 -123 109 -222 189 -52 42 -97 79
-100 82 -3 3 -23 18 -45 35 -22 16 -46 35 -53 42 -7 7 -17 13 -21 13 -5 0 -19
10 -32 23 -14 12 -106 76 -204 141 -99 66 -192 128 -207 138 -15 10 -29 18
-32 18 -2 0 -33 17 -67 38 -101 61 -154 90 -314 171 -190 96 -346 168 -465
215 -36 14 -78 30 -95 37 -16 7 -32 13 -35 13 -3 1 -9 4 -15 7 -5 4 -37 14
-70 24 -33 10 -64 21 -70 25 -5 4 -57 21 -115 39 -58 18 -112 35 -120 38 -8 3
-19 7 -25 9 -172 45 -376 97 -395 100 -14 3 -54 11 -90 19 -36 8 -81 17 -100
20 -19 3 -60 10 -90 15 -87 14 -133 22 -160 25 -14 2 -50 6 -80 10 -60 8 -78
10 -190 20 -41 4 -95 9 -120 11 -55 6 -687 14 -691 9z"/>
<path d="M9910 9013 c-58 -17 -98 -66 -95 -118 3 -56 26 -131 48 -157 42 -48
121 -52 171 -9 25 22 46 65 42 87 -14 77 -20 110 -18 116 3 13 -68 78 -85 79
-10 0 -25 2 -33 3 -8 2 -22 1 -30 -1z"/>
<path d="M10785 8205 c-22 -13 -36 -25 -31 -25 5 0 3 -6 -3 -14 -17 -21 -33
-153 -20 -162 5 -3 7 -9 5 -13 -6 -10 33 -55 61 -69 24 -13 81 -9 111 7 30 16
53 58 58 109 3 26 7 52 9 59 9 26 -17 84 -49 108 -42 32 -89 32 -141 0z"/>
<path d="M10391 8014 c-27 -6 -61 -18 -75 -28 -14 -9 -26 -14 -26 -11 0 7 -35
-22 -81 -68 -40 -39 -87 -126 -95 -174 -13 -82 -11 -121 10 -203 16 -59 36
-88 141 -206 6 -6 35 -40 65 -74 30 -34 66 -75 80 -90 14 -15 57 -62 95 -105
39 -43 81 -90 94 -104 24 -27 135 -152 161 -181 8 -9 49 -54 90 -100 41 -46
82 -91 90 -100 87 -100 133 -138 196 -165 74 -32 165 -39 238 -18 28 8 57 15
64 15 6 1 12 5 12 8 0 4 13 13 29 20 41 17 114 92 141 147 80 160 53 317 -80
463 -17 19 -57 64 -88 99 -31 36 -64 72 -72 80 -8 9 -28 31 -45 49 l-30 33 28
-10 c27 -11 55 -9 95 3 30 10 62 70 68 126 3 30 6 56 6 59 5 19 -16 71 -35 89
-45 41 -101 44 -154 9 -41 -28 -51 -55 -55 -149 -2 -32 -6 -58 -9 -58 -3 0
-29 26 -57 58 -28 32 -64 73 -79 89 -43 48 -149 166 -170 189 -34 39 -158 177
-188 209 -38 41 -105 79 -175 99 -61 17 -114 17 -189 0z"/>
<path d="M11061 7953 c-30 -12 -62 -49 -71 -83 -33 -122 -5 -212 70 -225 18
-3 36 -7 39 -9 12 -7 75 30 93 54 17 23 31 91 30 150 0 39 -19 77 -46 95 -26
17 -90 27 -115 18z"/>
<path d="M11548 7401 c-42 -22 -66 -70 -74 -147 -7 -75 14 -120 70 -148 32
-16 44 -17 76 -7 43 13 90 61 91 94 1 36 9 101 12 112 6 15 -26 66 -53 86 -37
26 -84 30 -122 10z"/>
<path d="M12192 6366 c-24 -16 -75 -88 -77 -106 0 -3 -4 -11 -9 -18 -14 -22
-9 -79 9 -110 20 -33 68 -59 103 -56 12 1 29 2 37 3 24 2 65 50 95 113 31 65
32 90 6 135 -34 57 -113 76 -164 39z"/>
<path d="M11659 6334 c-66 -15 -122 -43 -164 -82 -36 -32 -100 -112 -90 -112
4 0 3 -6 -3 -13 -38 -46 -48 -204 -17 -287 9 -25 17 -49 19 -55 1 -5 8 -21 14
-35 10 -22 43 -110 127 -335 12 -33 25 -67 28 -75 4 -8 22 -55 40 -105 199
-533 212 -563 255 -620 21 -27 53 -60 72 -72 19 -13 40 -27 47 -33 7 -5 18
-10 26 -10 7 0 17 -3 21 -7 4 -5 12 -9 17 -9 5 -1 10 -2 12 -4 14 -11 134 -15
185 -6 56 11 121 47 176 97 113 103 150 259 98 409 -35 100 -112 301 -123 322
-15 27 -7 31 27 13 39 -20 83 -19 119 4 36 22 93 123 93 166 0 133 -161 170
-229 52 -32 -56 -50 -107 -42 -121 4 -7 3 -8 -4 -1 -5 6 -33 73 -62 150 -29
77 -64 169 -78 205 -14 36 -36 97 -50 135 -14 39 -29 74 -34 80 -5 5 -9 17 -9
27 0 10 -4 26 -9 36 -5 9 -22 44 -37 77 -74 161 -252 249 -425 209z"/>
<path d="M12364 6038 c-23 -5 -48 -16 -57 -26 -24 -27 -68 -111 -73 -139 -7
-35 12 -86 41 -113 28 -26 98 -32 137 -11 39 20 92 118 92 171 1 81 -62 134
-140 118z"/>
<path d="M12615 5345 c-37 -15 -55 -36 -89 -100 -42 -80 -31 -139 32 -181 38
-26 94 -24 131 4 40 30 90 135 85 178 -10 82 -87 130 -159 99z"/>
<path d="M11955 2910 c3 -5 8 -10 11 -10 2 0 4 5 4 10 0 6 -5 10 -11 10 -5 0
-7 -4 -4 -10z"/>
<path d="M11962 2870 c0 -14 2 -19 5 -12 2 6 2 18 0 25 -3 6 -5 1 -5 -13z"/>
</g>
</svg>
